<svg width="289" height="243" viewBox="0 0 289 243" fill="none" xmlns="http://www.w3.org/2000/svg">
<path d="M204.426 0.0776184C251.505 2.27267 289 41.0522 289 88.5715C289 137.5 249.248 177.165 200.211 177.165H133.615C118.948 177.165 105.458 185.192 98.4603 198.082L91.3475 211.184C80.7055 230.788 60.156 243 37.8121 243H0L39.8406 169.61C54.9168 141.838 84.0279 124.538 115.682 124.538H200.409C220.304 124.538 236.432 108.445 236.432 88.5938C236.432 68.7426 220.304 52.65 200.409 52.65H88.0056C84.161 52.6499 81.7132 48.5495 83.5443 45.1764L90.7971 31.8156C101.439 12.2121 121.988 6.11035e-05 144.332 0H204.468L204.426 0.0776184Z" fill="url(#paint0_linear_15_2)"/>
<defs>
<linearGradient id="paint0_linear_15_2" x1="289.648" y1="0.000235848" x2="61.8683" y2="243.501" gradientUnits="userSpaceOnUse">
<stop stop-color="#53FAFF"/>
<stop offset="1" stop-color="#00D2D8"/>
</linearGradient>
</defs>
</svg>
